<?xml version="1.0" encoding="UTF-8" standalone="no"?>
<!-- Created with Inkscape (http://www.inkscape.org/) -->

<svg
   xmlns:dc="http://purl.org/dc/elements/1.1/"
   xmlns:cc="http://creativecommons.org/ns#"
   xmlns:rdf="http://www.w3.org/1999/02/22-rdf-syntax-ns#"
   xmlns:svg="http://www.w3.org/2000/svg"
   xmlns="http://www.w3.org/2000/svg"
   xmlns:sodipodi="http://sodipodi.sourceforge.net/DTD/sodipodi-0.dtd"
   xmlns:inkscape="http://www.inkscape.org/namespaces/inkscape"
   id="svg2"
   viewBox="0 0 140 190"
   sodipodi:version="0.32"
   version="1.0"
   inkscape:version="0.92.1 r"
   y="0"
   x="0"
   sodipodi:docname="nicubunu-Ornamental-deck-10-of-clubs.svg"
   width="149.33333"
   height="202.66667">
  <sodipodi:namedview
     id="base"
     bordercolor="#666666"
     inkscape:window-x="66"
     inkscape:window-y="31"
     pagecolor="#ffffff"
     inkscape:zoom="2.8284271"
     inkscape:pageshadow="2"
     borderopacity="1.0"
     inkscape:current-layer="svg2"
     inkscape:cx="60.378175"
     inkscape:cy="95"
     inkscape:window-height="746"
     inkscape:pageopacity="0.0"
     inkscape:window-width="1152"
     showgrid="false"
     inkscape:window-maximized="0" />
  <defs
     id="defs3">
    <linearGradient
       id="linearGradient1734"
       y2="128.7"
       gradientUnits="userSpaceOnUse"
       x2="109"
       gradientTransform="translate(0,-1)"
       y1="63.099998"
       x1="2"
       inkscape:collect="always">
      <stop
         id="stop2062"
         style="stop-color:#ebf0d0"
         offset="0" />
      <stop
         id="stop2064"
         style="stop-color:#ffffeb"
         offset="1" />
    </linearGradient>
  </defs>
  <g
     id="layer1"
     inkscape:label="Layer 1"
     inkscape:groupmode="layer">
    <g
       id="g1344">
      <g
         id="g5630">
        <path
           id="rect2070"
           style="fill:#000000;fill-opacity:0.49803999"
           d="m 21,5 h 103 c 8.86,0 16,7.136 16,16 v 153 c 0,8.86 -7.14,16 -16,16 H 21 C 12.136,190 5,182.86 5,174 V 21 C 5,12.136 12.136,5 21,5 Z"
           inkscape:connector-curvature="0" />
        <path
           id="rect1300"
           style="fill:#ffffff"
           d="m 17,1 h 103 c 8.86,0 16,7.136 16,16 v 153 c 0,8.86 -7.14,16 -16,16 H 17 C 8.136,186 1,178.86 1,170 V 17 C 1,8.136 8.136,1 17,1 Z"
           inkscape:connector-curvature="0" />
        <path
           id="path5624"
           style="fill:#c7891f"
           d="m 19,3 h 103 c 8.86,0 16,7.136 16,16 v 153 c 0,8.86 -7.14,16 -16,16 H 19 C 10.136,188 3,180.86 3,172 V 19 C 3,10.136 10.136,3 19,3 Z"
           inkscape:connector-curvature="0" />
        <path
           id="rect1306"
           style="fill:url(#linearGradient1734)"
           d="m 18,2 h 103 c 8.86,0 16,7.136 16,16 v 153 c 0,8.86 -7.14,16 -16,16 H 18 C 9.136,187 2,179.86 2,171 V 18 C 2,9.136 9.136,2 18,2 Z"
           inkscape:connector-curvature="0" />
      </g>
      <path
         id="path2869"
         style="fill:#9f0000;fill-rule:evenodd"
         d="m 103.53,21 c -0.5,0.002 -0.97,0.099 -1.44,0.281 -0.93,0.364 -1.73,1.112 -2.03,2.188 -0.173,0.645 -0.12,1.381 0.19,2 0.31,0.619 0.93,1.119 1.75,1.125 0.48,0.003 0.85,-0.196 1.16,-0.532 0.15,-0.167 0.31,-0.415 0.31,-0.718 0,-0.303 -0.21,-0.583 -0.47,-0.75 l -0.53,0.812 c 0.07,0.046 0,-0.005 0,-0.062 0,-0.058 0.02,-0.022 -0.03,0.031 -0.1,0.106 -0.46,0.219 -0.44,0.219 -0.42,-0.003 -0.65,-0.217 -0.84,-0.594 -0.19,-0.377 -0.23,-0.905 -0.13,-1.281 0.21,-0.751 0.72,-1.231 1.41,-1.5 0.69,-0.27 1.55,-0.298 2.25,-0.031 2.11,0.807 2.82,3.429 1.93,5.437 -0.77,1.764 -2.58,2.83 -4.5,2.906 l -62.776,0.375 v 1 l 62.566,-0.375 v 0.063 c 0.07,0 0.14,-0.06 0.21,-0.063 h 0.35 v -0.093 c 2.16,-0.195 4.19,-1.362 5.09,-3.407 1.1,-2.492 0.15,-5.748 -2.56,-6.781 -0.47,-0.18 -0.97,-0.252 -1.47,-0.25 z m 11.41,3.031 c -0.67,0.023 -1.35,0.163 -1.97,0.438 -2.05,0.903 -3.21,2.93 -3.41,5.093 h -0.09 v 0.344 c 0,0.078 -0.06,0.141 -0.06,0.219 h 0.06 l 0.25,69.094 h 1 l -0.25,-69.313 c 0.08,-1.919 1.14,-3.72 2.91,-4.5 2,-0.887 4.62,-0.178 5.43,1.938 0.27,0.698 0.24,1.561 -0.03,2.25 -0.27,0.688 -0.75,1.202 -1.5,1.406 -0.37,0.102 -0.9,0.064 -1.28,-0.125 -0.38,-0.189 -0.59,-0.421 -0.59,-0.844 0,0.018 0.11,-0.34 0.21,-0.437 0.06,-0.049 0.09,-0.031 0.04,-0.032 -0.06,0 -0.11,-0.07 -0.07,0 l 0.82,-0.531 c -0.17,-0.259 -0.45,-0.468 -0.75,-0.469 -0.31,0 -0.55,0.16 -0.72,0.313 -0.34,0.306 -0.54,0.681 -0.53,1.156 0,0.819 0.5,1.44 1.12,1.75 0.62,0.311 1.36,0.363 2,0.188 1.08,-0.293 1.82,-1.102 2.19,-2.031 0.18,-0.465 0.28,-0.941 0.28,-1.438 0,-0.497 -0.07,-0.996 -0.25,-1.469 -0.77,-2.029 -2.8,-3.068 -4.81,-3 z M 29.281,90 l 0.25,69.31 c -0.076,1.92 -1.142,3.72 -2.906,4.5 -2.008,0.89 -4.63,0.18 -5.437,-1.93 -0.267,-0.7 -0.239,-1.57 0.031,-2.26 0.269,-0.68 0.749,-1.2 1.5,-1.4 0.376,-0.1 0.904,-0.07 1.281,0.12 0.377,0.19 0.591,0.42 0.594,0.85 0,-0.02 -0.113,0.34 -0.219,0.43 -0.053,0.05 -0.089,0.04 -0.031,0.04 0.057,0 0.108,0.07 0.062,0 l -0.812,0.53 c 0.167,0.26 0.447,0.47 0.75,0.47 0.303,0 0.551,-0.16 0.718,-0.32 0.336,-0.3 0.535,-0.68 0.532,-1.15 -0.006,-0.82 -0.506,-1.44 -1.125,-1.75 -0.619,-0.31 -1.355,-0.37 -2,-0.19 -1.076,0.29 -1.824,1.1 -2.188,2.03 -0.182,0.47 -0.279,0.94 -0.281,1.44 -0.002,0.5 0.07,0.99 0.25,1.47 1.033,2.7 4.289,3.66 6.781,2.56 2.045,-0.9 3.212,-2.93 3.407,-5.09 h 0.093 v -0.35 c 0.003,-0.08 0.063,-0.14 0.063,-0.22 H 30.531 L 30.281,90 Z m 71.379,67.31 -62.566,0.38 v -0.07 c -0.078,0 -0.141,0.06 -0.219,0.07 h -0.344 v 0.09 c -2.163,0.2 -4.19,1.36 -5.093,3.41 -1.101,2.49 -0.144,5.75 2.562,6.78 0.472,0.18 0.971,0.25 1.469,0.25 0.497,0 0.972,-0.1 1.437,-0.28 0.93,-0.37 1.739,-1.11 2.032,-2.19 0.175,-0.65 0.122,-1.38 -0.188,-2 -0.31,-0.62 -0.932,-1.12 -1.75,-1.13 -0.476,0 -0.85,0.2 -1.156,0.54 -0.153,0.16 -0.314,0.41 -0.313,0.72 10e-4,0.3 0.21,0.58 0.469,0.74 l 0.531,-0.81 c -0.07,-0.04 0,0.01 0,0.07 0,0.05 -0.017,0.02 0.031,-0.04 0.097,-0.1 0.455,-0.21 0.438,-0.22 0.423,0.01 0.655,0.22 0.844,0.6 0.189,0.38 0.227,0.9 0.125,1.28 -0.205,0.75 -0.718,1.23 -1.407,1.5 -0.688,0.27 -1.552,0.3 -2.25,0.03 -2.115,-0.81 -2.824,-3.43 -1.937,-5.44 0.779,-1.76 2.581,-2.83 4.5,-2.9 l 62.785,-0.38 z"
         inkscape:connector-curvature="0" />
    </g>
    <g
       id="g5202"
       transform="translate(152.04,99.567)" />
  </g>
  <path
     id="path908"
     sodipodi:nodetypes="cscsssccccccssscsc"
     style="fill:#000000;fill-rule:evenodd;stroke-width:1.12115264"
     d="m 23.985224,48.67 c -3.351118,0 -6.07123,3.264 -6.07123,7.286 0,3.426 5.520671,9.191 5.306984,11.929 -1.772347,0.783 -7.249023,-6.437 -10.079749,-6.437 -3.3517457,0 -6.071229,3.263 -6.071229,7.285 0,4.023 2.7194833,7.286 6.071229,7.286 2.906145,0 7.888827,-7.214 10.079749,-6.563 l -3.681704,12.874 8.82905,-0.042 c 0,0 -3.867737,-12.481 -3.872765,-12.776 h 0.06913 v 0.014 c 2.14567,-0.64 7.298045,6.632 10.184078,6.632 3.352374,0 6.071229,-3.263 6.071229,-7.286 0,-4.022 -2.718855,-7.285 -6.071229,-7.285 -2.818156,0 -7.92905,7.1 -10.172765,6.368 0.03142,-2.806 5.480447,-8.577 5.480447,-11.999 0,-4.022 -2.718855,-7.286 -6.071229,-7.286 z"
     inkscape:connector-curvature="0" />
  <path
     id="path2229"
     style="fill:#000000"
     d="M 11.677,42.368 V 18.778 L 6.44,18.709 6.6926,15.087 11.647,11.998 h 5.492 v 30.37 M 30.573,27.146 c 0,-3.75 -0.265,-6.389 -0.796,-7.916 -0.52,-1.541 -1.4,-2.311 -2.641,-2.311 -1.24,0 -2.125,0.77 -2.656,2.311 -0.53,1.527 -0.795,4.166 -0.795,7.916 0,3.791 0.265,6.464 0.795,8.018 0.531,1.554 1.416,2.331 2.656,2.331 1.231,0 2.111,-0.777 2.641,-2.331 0.531,-1.554 0.796,-4.227 0.796,-8.018 m 5.777,0.061 c 0,4.97 -0.8,8.807 -2.401,11.513 -1.601,2.693 -3.872,4.039 -6.813,4.039 -2.951,0 -5.227,-1.346 -6.827,-4.039 -1.601,-2.706 -2.401,-6.543 -2.401,-11.513 0,-4.983 0.8,-8.821 2.401,-11.514 1.6,-2.706 3.876,-4.059 6.827,-4.059 2.941,0 5.212,1.353 6.813,4.059 1.601,2.693 2.401,6.531 2.401,11.514"
     inkscape:connector-curvature="0" />
  <path
     id="path4295"
     sodipodi:nodetypes="cscsssccccccssscsc"
     style="fill:#000000;fill-rule:evenodd;stroke-width:1.12115264"
     d="m 115.23601,139.96 c 3.34357,0 6.07122,-3.26 6.07122,-7.29 0,-3.42 -5.51815,-9.19 -5.30446,-11.93 1.77234,-0.78 7.24022,6.44 10.081,6.44 3.34358,0 6.07123,-3.26 6.07123,-7.28 0,-4.03 -2.72765,-7.29 -6.07123,-7.29 -2.9162,0 -7.89385,7.21 -10.081,6.56 l 3.68296,-12.87 -8.8366,0.04 c 0,0 3.87151,12.48 3.87151,12.78 h -0.0628 v -0.02 c -2.14944,0.64 -7.30307,-6.63 -10.18156,-6.63 -3.35615,0 -6.07123,3.27 -6.07123,7.29 0,4.02 2.71508,7.28 6.07123,7.28 2.81564,0 7.91899,-7.1 10.16899,-6.36 -0.0377,2.8 -5.48044,8.57 -5.48044,11.99 0,4.03 2.71508,7.29 6.07123,7.29 z"
     inkscape:connector-curvature="0" />
  <path
     id="path4297"
     style="fill:#000000"
     d="m 126.27,146.27 v 23.59 l 5.24,0.06 -0.26,3.63 -4.95,3.09 h -5.49 v -30.37 m -13.44,15.22 c 0,3.75 0.27,6.39 0.8,7.91 0.52,1.55 1.4,2.32 2.64,2.32 1.24,0 2.12,-0.77 2.66,-2.32 0.53,-1.52 0.79,-4.16 0.79,-7.91 0,-3.79 -0.26,-6.47 -0.79,-8.02 -0.54,-1.55 -1.42,-2.33 -2.66,-2.33 -1.23,0 -2.11,0.78 -2.64,2.33 -0.53,1.55 -0.8,4.23 -0.8,8.02 m -5.77,-0.06 c 0,-4.97 0.8,-8.81 2.4,-11.52 1.6,-2.69 3.87,-4.03 6.81,-4.03 2.95,0 5.23,1.34 6.83,4.03 1.6,2.71 2.4,6.55 2.4,11.52 0,4.98 -0.8,8.82 -2.4,11.51 -1.6,2.71 -3.88,4.06 -6.83,4.06 -2.94,0 -5.21,-1.35 -6.81,-4.06 -1.6,-2.69 -2.4,-6.53 -2.4,-11.51"
     inkscape:connector-curvature="0" />
  <path
     id="path2242"
     sodipodi:nodetypes="cscsssccccccssscsc"
     style="fill:#000000;fill-rule:evenodd;stroke-width:0.86602539"
     d="m 49.199,41 c -1.553,0 -2.814,1.4385 -2.814,3.21075 0,1.5105 2.559,4.0515 2.459,5.25825 -0.821,0.34425 -3.359,-2.83725 -4.671,-2.83725 -1.553,0 -2.813,1.43775 -2.813,3.21075 0,1.773 1.26,3.21075 2.813,3.21075 1.347,0 3.656,-3.17925 4.671,-2.892 L 47.138,55.835 51.23,55.81625 c 0,0 -1.793,-5.5005 -1.795,-5.63025 h 0.032 v 0.006 c 0.995,-0.282 3.382,2.92275 4.72,2.92275 1.553,0 2.813,-1.4385 2.813,-3.21075 0,-1.773 -1.26,-3.2115 -2.813,-3.2115 -1.307,0 -3.675,3.12975 -4.714,2.80725 0.014,-1.23675 2.539,-3.78 2.539,-5.289 C 52.012,42.4385 50.752,41 49.199,41 Z"
     inkscape:connector-curvature="0" />
  <path
     id="path2250"
     sodipodi:nodetypes="cscsssccccccssscsc"
     style="fill:#000000;fill-rule:evenodd;stroke-width:0.87082821"
     d="m 68.839,55 c -1.553,0 -2.814,1.454499 -2.814,3.246461 0,1.5273 2.559,4.096562 2.459,5.316734 -0.821,0.348079 -3.359,-2.868807 -4.671,-2.868807 -1.553,0 -2.813,1.453741 -2.813,3.246461 0,1.79272 1.26,3.246461 2.813,3.246461 1.347,0 3.656,-3.21461 4.671,-2.924165 L 66.778,70 70.87,69.981041 c 0,0 -1.793,-5.561678 -1.795,-5.692871 h 0.032 v 0.0061 c 0.995,-0.285137 3.382,2.955257 4.72,2.955257 1.553,0 2.813,-1.454499 2.813,-3.246461 0,-1.79272 -1.26,-3.247219 -2.813,-3.247219 -1.307,0 -3.675,3.16456 -4.714,2.838473 0.014,-1.250505 2.539,-3.822042 2.539,-5.347826 C 71.652,56.454499 70.392,55 68.839,55 Z"
     inkscape:connector-curvature="0" />
  <path
     id="path2248"
     sodipodi:nodetypes="cscsssccccccssscsc"
     style="fill:#000000;fill-rule:evenodd;stroke-width:0.86602539"
     d="m 90.199,41.165 c -1.553,0 -2.814,1.4385 -2.814,3.21075 0,1.5105 2.559,4.0515 2.459,5.25825 -0.821,0.34425 -3.359,-2.83725 -4.671,-2.83725 -1.553,0 -2.813,1.43775 -2.813,3.21075 0,1.773 1.26,3.21075 2.813,3.21075 1.347,0 3.656,-3.17925 4.671,-2.892 L 88.138,56 92.23,55.98125 c 0,0 -1.793,-5.5005 -1.795,-5.63025 h 0.032 v 0.006 c 0.995,-0.282 3.382,2.92275 4.72,2.92275 1.553,0 2.813,-1.4385 2.813,-3.21075 0,-1.773 -1.26,-3.2115 -2.813,-3.2115 -1.307,0 -3.675,3.12975 -4.714,2.80725 0.014,-1.23675 2.539,-3.78 2.539,-5.289 0,-1.77225 -1.26,-3.21075 -2.813,-3.21075 z"
     inkscape:connector-curvature="0" />
  <path
     id="path2254"
     sodipodi:nodetypes="cscsssccccccssscsc"
     style="fill:#000000;fill-rule:evenodd;stroke-width:0.84515429"
     d="m 48.839,76.871429 c -1.553,0 -2.814,1.37 -2.814,3.057857 0,1.438571 2.559,3.858571 2.459,5.007857 C 47.663,85.265 45.125,82.235 43.813,82.235 42.26,82.235 41,83.604286 41,85.292857 c 0,1.688572 1.26,3.057857 2.813,3.057857 1.347,0 3.656,-3.027857 4.671,-2.754285 L 46.778,91 50.87,90.982143 c 0,0 -1.793,-5.238572 -1.795,-5.362143 h 0.032 v 0.0057 c 0.995,-0.268571 3.382,2.783572 4.72,2.783572 1.553,0 2.813,-1.37 2.813,-3.057857 0,-1.688572 -1.26,-3.058572 -2.813,-3.058572 -1.307,0 -3.675,2.980714 -4.714,2.673572 0.014,-1.177858 2.539,-3.6 2.539,-5.037143 0,-1.687857 -1.26,-3.057857 -2.813,-3.057857 z"
     inkscape:connector-curvature="0" />
  <path
     id="path2252"
     sodipodi:nodetypes="cscsssccccccssscsc"
     style="fill:#000000;fill-rule:evenodd;stroke-width:0.84515429"
     d="m 88.199,76 c -1.553,0 -2.814,1.37 -2.814,3.057857 0,1.438572 2.559,3.858572 2.459,5.007857 -0.821,0.327857 -3.359,-2.702143 -4.671,-2.702143 -1.553,0 -2.813,1.369286 -2.813,3.057858 0,1.688571 1.26,3.057857 2.813,3.057857 1.347,0 3.656,-3.027857 4.671,-2.754286 l -1.706,5.403571 4.092,-0.01786 c 0,0 -1.793,-5.238571 -1.795,-5.362143 h 0.032 v 0.0057 c 0.995,-0.268572 3.382,2.783571 4.72,2.783571 1.553,0 2.813,-1.37 2.813,-3.057857 0,-1.688571 -1.26,-3.058571 -2.813,-3.058571 -1.307,0 -3.675,2.980714 -4.714,2.673571 0.014,-1.177857 2.539,-3.6 2.539,-5.037143 C 91.012,77.37 89.752,76 88.199,76 Z"
     inkscape:connector-curvature="0" />
  <path
     id="path2258"
     sodipodi:nodetypes="cscsssccccccssscsc"
     style="fill:#000000;fill-rule:evenodd;stroke-width:0.85414988"
     d="m 48.161,119.21093 c 1.553,0 2.814,-1.40077 2.814,-3.12256 0,-1.46644 -2.559,-3.93969 -2.459,-5.1143 0.821,-0.33561 3.359,2.75778 4.671,2.75778 1.553,0 2.813,-1.40078 2.813,-3.12257 0,-1.72179 -1.26,-3.12257 -2.813,-3.12257 -1.347,0 -3.656,3.09339 -4.671,2.81615 l 1.706,-5.52286 -4.092,0.0182 c 0,0 1.793,5.35141 1.795,5.47544 h -0.032 v -0.007 c -0.995,0.27724 -3.382,-2.83803 -4.72,-2.83803 -1.553,0 -2.813,1.39348 -2.813,3.12256 0,1.72179 1.26,3.12257 2.813,3.12257 1.307,0 3.675,-3.04231 4.714,-2.7286 -0.014,1.2038 -2.539,3.67705 -2.539,5.14349 0,1.72179 1.26,3.12256 2.813,3.12256 z"
     inkscape:connector-curvature="0" />
  <path
     id="path2256"
     sodipodi:nodetypes="cscsssccccccssscsc"
     style="fill:#000000;fill-rule:evenodd;stroke-width:0.85414988"
     d="m 89.801,119.78 c 1.553,0 2.814,-1.40078 2.814,-3.12257 0,-1.46644 -2.559,-3.93969 -2.459,-5.1143 0.821,-0.3356 3.359,2.75778 4.671,2.75778 1.553,0 2.813,-1.40077 2.813,-3.12256 0,-1.72179 -1.26,-3.12257 -2.813,-3.12257 -1.347,0 -3.656,3.09338 -4.671,2.81615 l 1.706,-5.52286 -4.092,0.0146 c 0,0 1.793,5.35506 1.795,5.47908 h -0.032 v -0.007 c -0.995,0.27723 -3.382,-2.83804 -4.72,-2.83804 -1.553,0 -2.813,1.39348 -2.813,3.12257 0,1.72179 1.26,3.12257 2.813,3.12257 1.307,0 3.675,-3.04232 4.714,-2.7286 -0.014,1.20379 -2.539,3.67704 -2.539,5.14348 0,1.72179 1.26,3.12257 2.813,3.12257 z"
     inkscape:connector-curvature="0" />
  <path
     id="path2262"
     sodipodi:nodetypes="cscsssccccccssscsc"
     style="fill:#000000;fill-rule:evenodd;stroke-width:0.87082821"
     d="m 68.801,137 c 1.553,0 2.814,-1.45602 2.814,-3.2457 0,-1.52427 -2.559,-4.09505 -2.459,-5.31598 0.821,-0.34884 3.359,2.86653 4.671,2.86653 1.553,0 2.813,-1.45601 2.813,-3.2457 0,-1.78969 -1.26,-3.2457 -2.813,-3.2457 -1.347,0 -3.656,3.21537 -4.671,2.9272 L 70.862,122 66.77,122.0152 c 0,0 1.793,5.56623 1.795,5.69514 h -0.032 v -0.008 c -0.995,0.28817 -3.382,-2.94995 -4.72,-2.94995 -1.553,0 -2.813,1.44843 -2.813,3.2457 0,1.78969 1.26,3.24571 2.813,3.24571 1.307,0 3.675,-3.16229 4.714,-2.8362 -0.014,1.25126 -2.539,3.82204 -2.539,5.34631 0,1.78968 1.26,3.2457 2.813,3.2457 z"
     inkscape:connector-curvature="0" />
  <path
     id="path2264"
     sodipodi:nodetypes="cscsssccccccssscsc"
     style="fill:#000000;fill-rule:evenodd;stroke-width:0.87082821"
     d="m 90.161,149.78 c 1.553,0 2.814,-1.45602 2.814,-3.2457 0,-1.52427 -2.559,-4.09505 -2.459,-5.31598 0.821,-0.34884 3.359,2.86653 4.671,2.86653 1.553,0 2.813,-1.45601 2.813,-3.2457 0,-1.78969 -1.26,-3.2457 -2.813,-3.2457 -1.347,0 -3.656,3.21537 -4.671,2.9272 l 1.706,-5.74065 -4.092,0.0152 c 0,0 1.793,5.56623 1.795,5.69514 h -0.032 v -0.008 c -0.995,0.28817 -3.382,-2.94995 -4.72,-2.94995 -1.553,0 -2.813,1.44843 -2.813,3.2457 0,1.78969 1.26,3.24571 2.813,3.24571 1.307,0 3.675,-3.16229 4.714,-2.8362 -0.014,1.25126 -2.539,3.82204 -2.539,5.34631 0,1.78968 1.26,3.2457 2.813,3.2457 z"
     inkscape:connector-curvature="0" />
  <path
     id="path2260"
     sodipodi:nodetypes="cscsssccccccssscsc"
     style="fill:#000000;fill-rule:evenodd;stroke-width:0.87082821"
     d="m 49.161,149.78 c 1.553,0 2.814,-1.45602 2.814,-3.2457 0,-1.52427 -2.559,-4.09505 -2.459,-5.31598 0.821,-0.34884 3.359,2.86653 4.671,2.86653 1.553,0 2.813,-1.45601 2.813,-3.2457 0,-1.78969 -1.26,-3.2457 -2.813,-3.2457 -1.347,0 -3.656,3.21537 -4.671,2.9272 l 1.706,-5.74065 -4.092,0.0152 c 0,0 1.793,5.56623 1.795,5.69514 h -0.032 v -0.008 c -0.995,0.28817 -3.382,-2.94995 -4.72,-2.94995 -1.553,0 -2.813,1.44843 -2.813,3.2457 0,1.78969 1.26,3.24571 2.813,3.24571 1.307,0 3.675,-3.16229 4.714,-2.8362 -0.014,1.25126 -2.539,3.82204 -2.539,5.34631 0,1.78968 1.26,3.2457 2.813,3.2457 z"
     inkscape:connector-curvature="0" />
  <metadata
     id="metadata5705">
    <rdf:RDF>
      <cc:Work>
        <dc:format>image/svg+xml</dc:format>
        <dc:type
           rdf:resource="http://purl.org/dc/dcmitype/StillImage" />
        <cc:license
           rdf:resource="http://creativecommons.org/licenses/publicdomain/" />
        <dc:publisher>
          <cc:Agent
             rdf:about="http://openclipart.org/">
            <dc:title>Openclipart</dc:title>
          </cc:Agent>
        </dc:publisher>
        <dc:title>Ornamental deck: 10 of clubs</dc:title>
        <dc:date>2009-03-23T12:24:56</dc:date>
        <dc:description>playing card from the &quot;Ornamental&quot; set</dc:description>
        <dc:source>https://openclipart.org/detail/22926/ornamental-deck:-10-of-clubs-by-nicubunu</dc:source>
        <dc:creator>
          <cc:Agent>
            <dc:title>nicubunu</dc:title>
          </cc:Agent>
        </dc:creator>
        <dc:subject>
          <rdf:Bag>
            <rdf:li>card</rdf:li>
            <rdf:li>cards</rdf:li>
            <rdf:li>deck</rdf:li>
            <rdf:li>gambling</rdf:li>
            <rdf:li>game</rdf:li>
            <rdf:li>ornamental deck</rdf:li>
            <rdf:li>play</rdf:li>
            <rdf:li>playing cards</rdf:li>
          </rdf:Bag>
        </dc:subject>
      </cc:Work>
      <cc:License
         rdf:about="http://creativecommons.org/licenses/publicdomain/">
        <cc:permits
           rdf:resource="http://creativecommons.org/ns#Reproduction" />
        <cc:permits
           rdf:resource="http://creativecommons.org/ns#Distribution" />
        <cc:permits
           rdf:resource="http://creativecommons.org/ns#DerivativeWorks" />
      </cc:License>
    </rdf:RDF>
  </metadata>
</svg>
