<?xml version="1.0" encoding="UTF-8" standalone="no"?>
<!-- Created with Inkscape (http://www.inkscape.org/) -->

<svg
   xmlns:dc="http://purl.org/dc/elements/1.1/"
   xmlns:cc="http://creativecommons.org/ns#"
   xmlns:rdf="http://www.w3.org/1999/02/22-rdf-syntax-ns#"
   xmlns:svg="http://www.w3.org/2000/svg"
   xmlns="http://www.w3.org/2000/svg"
   xmlns:sodipodi="http://sodipodi.sourceforge.net/DTD/sodipodi-0.dtd"
   xmlns:inkscape="http://www.inkscape.org/namespaces/inkscape"
   id="svg2"
   viewBox="0 0 140 190"
   sodipodi:version="0.32"
   version="1.0"
   inkscape:version="0.92.1 r"
   y="0"
   x="0"
   sodipodi:docname="nicubunu-Ornamental-deck-4-of-clubs.svg"
   width="149.33333"
   height="202.66667">
  <sodipodi:namedview
     id="base"
     bordercolor="#666666"
     inkscape:window-x="109"
     inkscape:window-y="38"
     pagecolor="#ffffff"
     inkscape:zoom="2"
     inkscape:pageshadow="2"
     borderopacity="1.0"
     inkscape:current-layer="svg2"
     inkscape:cx="55.245736"
     inkscape:cy="94.999969"
     inkscape:window-height="746"
     inkscape:pageopacity="0.0"
     inkscape:window-width="1152"
     showgrid="false"
     inkscape:window-maximized="0" />
  <defs
     id="defs3">
    <linearGradient
       id="linearGradient4853"
       y2="128.7"
       gradientUnits="userSpaceOnUse"
       x2="109"
       gradientTransform="translate(0,-1)"
       y1="63.099998"
       x1="2">
      <stop
         id="stop2062"
         style="stop-color:#ebf0d0"
         offset="0" />
      <stop
         id="stop2064"
         style="stop-color:#ffffeb"
         offset="1" />
    </linearGradient>
  </defs>
  <g
     id="layer1"
     inkscape:label="Layer 1"
     inkscape:groupmode="layer">
    <g
       id="g1344">
      <g
         id="g5630">
        <path
           id="rect2070"
           style="fill:#000000;fill-opacity:0.49803999"
           d="m 21,5 h 103 c 8.86,0 16,7.136 16,16 v 153 c 0,8.86 -7.14,16 -16,16 H 21 C 12.136,190 5,182.86 5,174 V 21 C 5,12.136 12.136,5 21,5 Z"
           inkscape:connector-curvature="0" />
        <path
           id="rect1300"
           style="fill:#ffffff"
           d="m 17,1 h 103 c 8.86,0 16,7.136 16,16 v 153 c 0,8.86 -7.14,16 -16,16 H 17 C 8.136,186 1,178.86 1,170 V 17 C 1,8.136 8.136,1 17,1 Z"
           inkscape:connector-curvature="0" />
        <path
           id="path5624"
           style="fill:#c7891f"
           d="m 19,3 h 103 c 8.86,0 16,7.136 16,16 v 153 c 0,8.86 -7.14,16 -16,16 H 19 C 10.136,188 3,180.86 3,172 V 19 C 3,10.136 10.136,3 19,3 Z"
           inkscape:connector-curvature="0" />
        <path
           id="rect1306"
           style="fill:url(#linearGradient4853)"
           d="m 18,2 h 103 c 8.86,0 16,7.136 16,16 v 153 c 0,8.86 -7.14,16 -16,16 H 18 C 9.136,187 2,179.86 2,171 V 18 C 2,9.136 9.136,2 18,2 Z"
           inkscape:connector-curvature="0" />
      </g>
      <path
         id="path2869"
         style="fill:#9f0000;fill-rule:evenodd"
         d="m 103.53,21 c -0.5,0.002 -0.97,0.099 -1.44,0.281 -0.93,0.364 -1.73,1.112 -2.03,2.188 -0.173,0.645 -0.12,1.381 0.19,2 0.31,0.619 0.93,1.119 1.75,1.125 0.48,0.003 0.85,-0.196 1.16,-0.532 0.15,-0.167 0.31,-0.415 0.31,-0.718 0,-0.303 -0.21,-0.583 -0.47,-0.75 l -0.53,0.812 c 0.07,0.046 0,-0.005 0,-0.062 0,-0.058 0.02,-0.022 -0.03,0.031 -0.1,0.106 -0.46,0.219 -0.44,0.219 -0.42,-0.003 -0.65,-0.217 -0.84,-0.594 -0.19,-0.377 -0.23,-0.905 -0.13,-1.281 0.21,-0.751 0.72,-1.231 1.41,-1.5 0.69,-0.27 1.55,-0.298 2.25,-0.031 2.11,0.807 2.82,3.429 1.93,5.437 -0.77,1.764 -2.58,2.83 -4.5,2.906 l -62.776,0.375 v 1 l 62.566,-0.375 v 0.063 c 0.07,0 0.14,-0.06 0.21,-0.063 h 0.35 v -0.093 c 2.16,-0.195 4.19,-1.362 5.09,-3.407 1.1,-2.492 0.15,-5.748 -2.56,-6.781 -0.47,-0.18 -0.97,-0.252 -1.47,-0.25 z m 11.41,3.031 c -0.67,0.023 -1.35,0.163 -1.97,0.438 -2.05,0.903 -3.21,2.93 -3.41,5.093 h -0.09 v 0.344 c 0,0.078 -0.06,0.141 -0.06,0.219 h 0.06 l 0.25,69.094 h 1 l -0.25,-69.313 c 0.08,-1.919 1.14,-3.72 2.91,-4.5 2,-0.887 4.62,-0.178 5.43,1.938 0.27,0.698 0.24,1.561 -0.03,2.25 -0.27,0.688 -0.75,1.202 -1.5,1.406 -0.37,0.102 -0.9,0.064 -1.28,-0.125 -0.38,-0.189 -0.59,-0.421 -0.59,-0.844 0,0.018 0.11,-0.34 0.21,-0.437 0.06,-0.049 0.09,-0.031 0.04,-0.032 -0.06,0 -0.11,-0.07 -0.07,0 l 0.82,-0.531 c -0.17,-0.259 -0.45,-0.468 -0.75,-0.469 -0.31,0 -0.55,0.16 -0.72,0.313 -0.34,0.306 -0.54,0.681 -0.53,1.156 0,0.819 0.5,1.44 1.12,1.75 0.62,0.311 1.36,0.363 2,0.188 1.08,-0.293 1.82,-1.102 2.19,-2.031 0.18,-0.465 0.28,-0.941 0.28,-1.438 0,-0.497 -0.07,-0.996 -0.25,-1.469 -0.77,-2.029 -2.8,-3.068 -4.81,-3 z M 29.281,90 l 0.25,69.31 c -0.076,1.92 -1.142,3.72 -2.906,4.5 -2.008,0.89 -4.63,0.18 -5.437,-1.93 -0.267,-0.7 -0.239,-1.57 0.031,-2.26 0.269,-0.68 0.749,-1.2 1.5,-1.4 0.376,-0.1 0.904,-0.07 1.281,0.12 0.377,0.19 0.591,0.42 0.594,0.85 0,-0.02 -0.113,0.34 -0.219,0.43 -0.053,0.05 -0.089,0.04 -0.031,0.04 0.057,0 0.108,0.07 0.062,0 l -0.812,0.53 c 0.167,0.26 0.447,0.47 0.75,0.47 0.303,0 0.551,-0.16 0.718,-0.32 0.336,-0.3 0.535,-0.68 0.532,-1.15 -0.006,-0.82 -0.506,-1.44 -1.125,-1.75 -0.619,-0.31 -1.355,-0.37 -2,-0.19 -1.076,0.29 -1.824,1.1 -2.188,2.03 -0.182,0.47 -0.279,0.94 -0.281,1.44 -0.002,0.5 0.07,0.99 0.25,1.47 1.033,2.7 4.289,3.66 6.781,2.56 2.045,-0.9 3.212,-2.93 3.407,-5.09 h 0.093 v -0.35 c 0.003,-0.08 0.063,-0.14 0.063,-0.22 H 30.531 L 30.281,90 Z m 71.379,67.31 -62.566,0.38 v -0.07 c -0.078,0 -0.141,0.06 -0.219,0.07 h -0.344 v 0.09 c -2.163,0.2 -4.19,1.36 -5.093,3.41 -1.101,2.49 -0.144,5.75 2.562,6.78 0.472,0.18 0.971,0.25 1.469,0.25 0.497,0 0.972,-0.1 1.437,-0.28 0.93,-0.37 1.739,-1.11 2.032,-2.19 0.175,-0.65 0.122,-1.38 -0.188,-2 -0.31,-0.62 -0.932,-1.12 -1.75,-1.13 -0.476,0 -0.85,0.2 -1.156,0.54 -0.153,0.16 -0.314,0.41 -0.313,0.72 10e-4,0.3 0.21,0.58 0.469,0.74 l 0.531,-0.81 c -0.07,-0.04 0,0.01 0,0.07 0,0.05 -0.017,0.02 0.031,-0.04 0.097,-0.1 0.455,-0.21 0.438,-0.22 0.423,0.01 0.655,0.22 0.844,0.6 0.189,0.38 0.227,0.9 0.125,1.28 -0.205,0.75 -0.718,1.23 -1.407,1.5 -0.688,0.27 -1.552,0.3 -2.25,0.03 -2.115,-0.81 -2.824,-3.43 -1.937,-5.44 0.779,-1.76 2.581,-2.83 4.5,-2.9 l 62.785,-0.38 z"
         inkscape:connector-curvature="0" />
    </g>
    <g
       id="g5202"
       transform="translate(152.04,99.567)" />
  </g>
  <path
     id="path2248"
     sodipodi:nodetypes="cscsssccccccssscsc"
     style="fill:#000000;fill-rule:evenodd;stroke-width:0.85282469"
     d="m 86.878223,49.78 c -1.489451,0 -2.69885,1.454499 -2.69885,3.246461 0,1.5273 2.454284,4.096562 2.358376,5.316734 -0.787404,0.348079 -3.221547,-2.868807 -4.479859,-2.868807 -1.48945,0 -2.69789,1.453741 -2.69789,3.246461 0,1.79272 1.20844,3.246461 2.69789,3.246461 1.29188,0 3.506394,-3.21461 4.479859,-2.924165 L 84.90156,64.78 88.826113,64.76104 c 0,0 -1.71963,-5.561678 -1.721548,-5.692871 h 0.03069 v 0.0061 c 0.954284,-0.285137 3.243606,2.955257 4.526854,2.955257 1.48945,0 2.69789,-1.454499 2.69789,-3.246461 0,-1.79272 -1.20844,-3.247219 -2.69789,-3.247219 -1.253517,0 -3.524616,3.16456 -4.5211,2.838473 0.01343,-1.250505 2.435103,-3.822042 2.435103,-5.347826 0,-1.791962 -1.20844,-3.246461 -2.69789,-3.246461 z"
     inkscape:connector-curvature="0" />
  <path
     id="path2260"
     sodipodi:nodetypes="cscsssccccccssscsc"
     style="fill:#000000;fill-rule:evenodd;stroke-width:0.85282469"
     d="m 52.841778,142 c 1.48945,0 2.698849,-1.45602 2.698849,-3.2457 0,-1.52427 -2.454284,-4.09505 -2.358376,-5.31598 0.787404,-0.34884 3.221547,2.86653 4.479859,2.86653 1.48945,0 2.69789,-1.45601 2.69789,-3.2457 0,-1.78969 -1.20844,-3.2457 -2.69789,-3.2457 -1.29188,0 -3.506394,3.21537 -4.479859,2.9272 L 54.81844,127 l -3.924553,0.0152 c 0,0 1.71963,5.56623 1.721548,5.69514 h -0.03069 v -0.008 c -0.954284,0.28817 -3.243606,-2.94995 -4.526854,-2.94995 -1.48945,0 -2.69789,1.44843 -2.69789,3.2457 0,1.78969 1.20844,3.24571 2.69789,3.24571 1.253517,0 3.524616,-3.16229 4.5211,-2.8362 -0.01343,1.25126 -2.435103,3.82204 -2.435103,5.34631 0,1.78968 1.20844,3.2457 2.69789,3.2457 z"
     inkscape:connector-curvature="0" />
  <path
     id="path908"
     sodipodi:nodetypes="cscsssccccccssscsc"
     style="fill:#000000;fill-rule:evenodd;stroke-width:1.1226505"
     d="m 23.985224,48.575 c -3.351118,0 -6.07123,3.272727 -6.07123,7.305481 0,3.435161 5.520671,9.215575 5.306984,11.960896 -1.772347,0.785094 -7.249023,-6.454211 -10.079749,-6.454211 -3.3517457,0 -6.071229,3.271724 -6.071229,7.304478 0,4.033757 2.7194833,7.305482 6.071229,7.305482 2.906145,0 7.888827,-7.233289 10.079749,-6.580549 L 19.539274,82.325 l 8.82905,-0.04211 c 0,0 -3.867737,-12.514372 -3.872765,-12.810161 h 0.06913 v 0.01404 c 2.14567,-0.641712 7.298045,6.649732 10.184078,6.649732 3.352374,0 6.071229,-3.271724 6.071229,-7.305481 0,-4.032754 -2.718855,-7.304479 -6.071229,-7.304479 -2.818156,0 -7.92905,7.118984 -10.172765,6.385027 0.03142,-2.813503 5.480447,-8.599933 5.480447,-12.031083 0,-4.032754 -2.718855,-7.305481 -6.071229,-7.305481 z"
     inkscape:connector-curvature="0" />
  <path
     id="text2358"
     style="fill:#000000"
     d="m 21.285,18.608 -7.011,12.558 h 7.011 V 18.608 m -1.064,-6.37 h 7.111 v 18.928 h 3.538 v 5.607 h -3.538 v 5.465 H 21.285 V 36.773 H 10.287 v -6.631 l 9.934,-17.904"
     inkscape:connector-curvature="0" />
  <path
     id="path2167"
     sodipodi:nodetypes="cscsssccccccssscsc"
     style="fill:#000000;fill-rule:evenodd;stroke-width:1.1226505"
     d="m 115.23601,139.96 c 3.34357,0 6.07122,-3.26872 6.07122,-7.29947 0,-3.43917 -5.51815,-9.21457 -5.30446,-11.96189 1.77234,-0.79212 7.24022,6.44719 10.081,6.44719 3.34358,0 6.07123,-3.26872 6.07123,-7.29947 0,-4.03075 -2.72765,-7.30949 -6.07123,-7.30949 -2.9162,0 -7.89385,7.23931 -10.081,6.58757 l 3.68296,-12.91444 -8.8366,0.0401 c 0,0 3.87151,12.52339 3.87151,12.81417 h -0.0628 v -0.01 c -2.14944,0.64171 -7.30307,-6.65775 -10.18156,-6.65775 -3.35615,0 -6.07123,3.27874 -6.07123,7.30949 0,4.03075 2.71508,7.30949 6.07123,7.30949 2.81564,0 7.91899,-7.11898 10.16899,-6.38703 -0.0377,2.80749 -5.48044,8.59291 -5.48044,12.03208 0,4.03075 2.71508,7.29947 6.07123,7.29947 z"
     inkscape:connector-curvature="0" />
  <path
     id="text2179"
     style="fill:#000000"
     d="m 117.4,170.53 7.01,-12.56 h -7.01 v 12.56 m 1.06,6.37 h -7.11 v -18.93 h -3.54 v -5.6 h 3.54 v -5.47 h 6.05 v 5.47 h 10.99 V 159 l -9.93,17.9"
     inkscape:connector-curvature="0" />
  <path
     id="path2242"
     sodipodi:nodetypes="cscsssccccccssscsc"
     style="fill:#000000;fill-rule:evenodd;stroke-width:0.85282463"
     d="m 50.878223,49.78 c -1.489451,0 -2.69885,1.454499 -2.69885,3.246461 0,1.5273 2.454284,4.096562 2.358376,5.316734 -0.787404,0.348079 -3.221547,-2.868807 -4.479859,-2.868807 -1.48945,0 -2.69789,1.453741 -2.69789,3.246461 0,1.79272 1.20844,3.246461 2.69789,3.246461 1.29188,0 3.506394,-3.21461 4.479859,-2.924165 L 48.90156,64.78 52.826113,64.76104 c 0,0 -1.71963,-5.561678 -1.721548,-5.692871 h 0.03069 v 0.0061 c 0.954284,-0.285137 3.243606,2.955257 4.526854,2.955257 1.48945,0 2.69789,-1.454499 2.69789,-3.246461 0,-1.79272 -1.20844,-3.247219 -2.69789,-3.247219 -1.253517,0 -3.524616,3.16456 -4.5211,2.838473 0.01343,-1.250505 2.435103,-3.822042 2.435103,-5.347826 0,-1.791962 -1.20844,-3.246461 -2.69789,-3.246461 z"
     inkscape:connector-curvature="0" />
  <path
     id="path2264"
     sodipodi:nodetypes="cscsssccccccssscsc"
     style="fill:#000000;fill-rule:evenodd;stroke-width:0.85282469"
     d="m 87.481778,141.78 c 1.48945,0 2.698849,-1.45602 2.698849,-3.2457 0,-1.52427 -2.454284,-4.09505 -2.358376,-5.31598 0.787404,-0.34884 3.221547,2.86653 4.479859,2.86653 1.48945,0 2.69789,-1.45601 2.69789,-3.2457 0,-1.78969 -1.20844,-3.2457 -2.69789,-3.2457 -1.29188,0 -3.506394,3.21537 -4.479859,2.9272 l 1.636189,-5.74065 -3.924553,0.0152 c 0,0 1.71963,5.56623 1.721548,5.69514 h -0.03069 v -0.008 c -0.954284,0.28817 -3.243606,-2.94995 -4.526854,-2.94995 -1.48945,0 -2.69789,1.44843 -2.69789,3.2457 0,1.78969 1.20844,3.24571 2.69789,3.24571 1.253517,0 3.524616,-3.16229 4.5211,-2.8362 -0.01343,1.25126 -2.435103,3.82204 -2.435103,5.34631 0,1.78968 1.20844,3.2457 2.69789,3.2457 z"
     inkscape:connector-curvature="0" />
  <metadata
     id="metadata24">
    <rdf:RDF>
      <cc:Work>
        <dc:format>image/svg+xml</dc:format>
        <dc:type
           rdf:resource="http://purl.org/dc/dcmitype/StillImage" />
        <cc:license
           rdf:resource="http://creativecommons.org/licenses/publicdomain/" />
        <dc:publisher>
          <cc:Agent
             rdf:about="http://openclipart.org/">
            <dc:title>Openclipart</dc:title>
          </cc:Agent>
        </dc:publisher>
        <dc:title>Ornamental deck: 4 of clubs</dc:title>
        <dc:date>2009-03-23T12:13:59</dc:date>
        <dc:description>playing card from the &quot;Ornamental&quot; set</dc:description>
        <dc:source>https://openclipart.org/detail/22910/ornamental-deck:-4-of-clubs-by-nicubunu</dc:source>
        <dc:creator>
          <cc:Agent>
            <dc:title>nicubunu</dc:title>
          </cc:Agent>
        </dc:creator>
        <dc:subject>
          <rdf:Bag>
            <rdf:li>card</rdf:li>
            <rdf:li>cards</rdf:li>
            <rdf:li>deck</rdf:li>
            <rdf:li>gambling</rdf:li>
            <rdf:li>game</rdf:li>
            <rdf:li>ornamental deck</rdf:li>
            <rdf:li>play</rdf:li>
            <rdf:li>playing cards</rdf:li>
          </rdf:Bag>
        </dc:subject>
      </cc:Work>
      <cc:License
         rdf:about="http://creativecommons.org/licenses/publicdomain/">
        <cc:permits
           rdf:resource="http://creativecommons.org/ns#Reproduction" />
        <cc:permits
           rdf:resource="http://creativecommons.org/ns#Distribution" />
        <cc:permits
           rdf:resource="http://creativecommons.org/ns#DerivativeWorks" />
      </cc:License>
    </rdf:RDF>
  </metadata>
</svg>
